<?xml version="1.0" encoding="UTF-8"?>
<!DOCTYPE svg PUBLIC "-//W3C//DTD SVG 1.1//EN" "http://www.w3.org/Graphics/SVG/1.1/DTD/svg11.dtd">
<!-- Creator: CorelDRAW -->
<svg xmlns="http://www.w3.org/2000/svg" xml:space="preserve" width="115px" height="124px" version="1.1" style="shape-rendering:geometricPrecision; text-rendering:geometricPrecision; image-rendering:optimizeQuality; fill-rule:evenodd; clip-rule:evenodd"
viewBox="0 0 39.82 42.83"
 xmlns:xlink="http://www.w3.org/1999/xlink"
 xmlns:xodm="http://www.corel.com/coreldraw/odm/2003">
 <defs>
  <style type="text/css">
   <![CDATA[
    .fil0 {fill:#F96A00}
   ]]>
  </style>
 </defs>
 <g id="Capa_x0020_1">
  <metadata id="CorelCorpID_0Corel-Layer"/>
  <path class="fil0" d="M0 31.92c0.18,0.35 0.77,0.55 1.36,0.85 5.13,2.59 10.7,5.58 15.83,8.26 1.9,0.99 4.01,2.68 6.58,1.25 4.79,-2.67 9.22,-4.92 14.06,-7.81 0.87,-0.52 1.65,-1.21 1.89,-2.37 0.19,-0.9 0.06,-2.98 0.06,-4.01 0,-0.67 0,-1.34 0,-2.01 0,-0.97 0.1,-0.94 -0.47,-1.62l-8.42 3.58c-0.26,0.12 -0.24,0.51 -0.27,0.99 -0.55,7.57 -3.34,1.79 -15.24,-0.93 -1.96,-1.39 -1.65,-10.29 -1.07,-11.72 1.35,-3.3 1.35,-3.29 4.14,-5.45 2.35,-1.26 3.33,-1.68 3.32,-3.07l-0.05 -7.48c0,-0.67 -1.06,-0.43 -2.81,0.48 -1.04,0.53 -2.03,1.05 -3.09,1.61l-12.43 6.42c-3.46,1.84 -3.39,1.87 -3.39,5.71 0,5.77 0,11.55 0,17.32z"/>
  <path class="fil0" d="M30.62 21.94l0 -6.63c0,-1.49 0.41,-2.72 1.24,-3.69 0.82,-0.96 1.79,-1.45 2.91,-1.45l3.81 0c0.38,0 0.67,0.14 0.86,0.42 0.22,0.27 0.33,0.63 0.33,1.06l0 10.29 -9.15 0z"/>
  <path class="fil0" d="M0 31.92c0.18,0.35 0.77,0.55 1.36,0.85 5.13,2.59 10.7,5.58 15.83,8.26 1.9,0.99 4.01,2.68 6.58,1.25 4.79,-2.67 9.22,-4.92 14.06,-7.81 0.87,-0.52 1.65,-1.21 1.89,-2.37 0.19,-0.9 0.06,-2.98 0.06,-4.01 0,-0.67 0,-1.34 0,-2.01 0,-0.97 0.1,-0.94 -0.47,-1.62l-8.42 3.58c-0.26,0.12 -0.24,0.51 -0.27,0.99 -0.55,7.57 -3.34,1.79 -15.24,-0.93 -1.96,-1.39 -1.65,-10.29 -1.07,-11.72 1.35,-3.3 1.35,-3.29 4.14,-5.45 2.35,-1.26 3.33,-1.68 3.32,-3.07l-0.05 -7.48c0,-0.67 -1.06,-0.43 -2.81,0.48 -1.04,0.53 -2.03,1.05 -3.09,1.61l-12.43 6.42c-3.46,1.84 -3.39,1.87 -3.39,5.71 0,5.77 0,11.55 0,17.32z"/>
  <path class="fil0" d="M30.62 21.94l0 -6.63c0,-1.49 0.41,-2.72 1.24,-3.69 0.82,-0.96 1.79,-1.45 2.91,-1.45l3.81 0c0.38,0 0.67,0.14 0.86,0.42 0.22,0.27 0.33,0.63 0.33,1.06l0 10.29 -9.15 0z"/>
 </g>
</svg>
