<?xml version="1.0" encoding="UTF-8"?>
<!DOCTYPE svg PUBLIC "-//W3C//DTD SVG 1.1//EN" "http://www.w3.org/Graphics/SVG/1.1/DTD/svg11.dtd">
<!-- Creator: CorelDRAW -->
<svg xmlns="http://www.w3.org/2000/svg" xml:space="preserve" width="219px" height="405px" version="1.1" style="shape-rendering:geometricPrecision; text-rendering:geometricPrecision; image-rendering:optimizeQuality; fill-rule:evenodd; clip-rule:evenodd"
viewBox="0 0 4.17 7.71"
 xmlns:xlink="http://www.w3.org/1999/xlink"
 xmlns:xodm="http://www.corel.com/coreldraw/odm/2003">
 <defs>
  <style type="text/css">
   <![CDATA[
    .fil0 {fill:#F96A00}
   ]]>
  </style>
 </defs>
 <g id="Capa_x0020_1">
  <metadata id="CorelCorpID_0Corel-Layer"/>
  <path class="fil0" d="M1.16 1.81l0 0.96 -0.95 0c-0.14,0 -0.21,0.06 -0.21,0.2l0 1.19c0,0.16 0.08,0.2 0.24,0.2l0.92 0 0 3.18c0,0.1 0.07,0.17 0.17,0.17l1.26 0c0.17,0 0.21,-0.09 0.21,-0.25l0 -3.1 1.1 0c0.12,0 0.21,-0.03 0.21,-0.15l0 -1.31c0,-0.09 -0.11,-0.13 -0.21,-0.13l-1.1 0 0 -0.87c0,-0.39 0.28,-0.39 0.58,-0.39 0.46,0 0.79,0.08 0.79,-0.21l0 -1.08c0,-0.12 -0.06,-0.21 -0.17,-0.21 -0.58,0 -1.27,-0.06 -1.79,0.15 -0.4,0.16 -0.73,0.5 -0.89,0.9 -0.09,0.21 -0.16,0.46 -0.16,0.75z"/>
 </g>
</svg>
