<?xml version="1.0" encoding="UTF-8"?>
<!DOCTYPE svg PUBLIC "-//W3C//DTD SVG 1.1//EN" "http://www.w3.org/Graphics/SVG/1.1/DTD/svg11.dtd">
<!-- Creator: CorelDRAW -->
<svg xmlns="http://www.w3.org/2000/svg" xml:space="preserve" width="408px" height="408px" version="1.1" style="shape-rendering:geometricPrecision; text-rendering:geometricPrecision; image-rendering:optimizeQuality; fill-rule:evenodd; clip-rule:evenodd"
viewBox="0 0 13.72 13.72"
 xmlns:xlink="http://www.w3.org/1999/xlink"
 xmlns:xodm="http://www.corel.com/coreldraw/odm/2003">
 <defs>
  <style type="text/css">
   <![CDATA[
    .fil0 {fill:#F96A00}
   ]]>
  </style>
 </defs>
 <g id="Capa_x0020_1">
  <metadata id="CorelCorpID_0Corel-Layer"/>
  <g id="_3081062409712">
   <path class="fil0" d="M9.03 12.5l-4.37 0c-1.33,0 -2.37,-0.44 -3.03,-1.56 -0.05,-0.08 0.02,0.05 -0.04,-0.06 -0.19,-0.38 -0.37,-0.84 -0.37,-1.38l0 -5.34c0,-0.63 0.25,-1.16 0.56,-1.63 0.18,-0.27 0.46,-0.56 0.73,-0.74 0.48,-0.31 1,-0.57 1.65,-0.57l5.4 0c0.3,0 0.68,0.1 0.91,0.18 0.31,0.11 0.47,0.22 0.72,0.38 0.23,0.15 0.4,0.32 0.57,0.52l0.35 0.49c0.01,0.01 0.02,0.03 0.03,0.04 0.37,0.65 0.36,1.32 0.36,2.08l-0.01 4.4c-0.04,0.35 -0.05,0.64 -0.14,0.95 -0.34,1.1 -1.18,1.88 -2.29,2.15 -0.28,0.06 -0.68,0.09 -1.03,0.09zm-9.03 -8.91l0 6.5c0,0.54 0.2,1.16 0.38,1.52 0.15,0.29 0.58,0.91 0.82,1.09 0.19,0.15 0.32,0.28 0.53,0.41 0.03,0.02 0.04,0.02 0.06,0.04l0.24 0.13c0.61,0.3 1.16,0.44 1.97,0.44l5.66 0c1.83,0 3.14,-0.87 3.76,-2.36 0.21,-0.5 0.3,-1.06 0.3,-1.77l0 -5.47c0,-0.74 -0.12,-1.57 -0.48,-2.17 -0.42,-0.68 -0.87,-1.18 -1.61,-1.55 -0.37,-0.19 -0.99,-0.4 -1.54,-0.4l-6.5 0c-0.75,0 -1.44,0.3 -2,0.68 -0.27,0.18 -0.72,0.63 -0.9,0.89 -0.4,0.59 -0.69,1.27 -0.69,2.02z"/>
   <path class="fil0" d="M4.5 6.84c0,-1.79 1.93,-2.77 3.24,-2.11 0.54,0.27 0.88,0.53 1.16,1.12 0.43,0.9 0.25,1.92 -0.47,2.64 -0.19,0.19 -0.39,0.33 -0.65,0.45 -0.65,0.3 -1.31,0.29 -1.97,0 -0.32,-0.15 -0.65,-0.44 -0.86,-0.73l-0.03 -0.03c-0.01,-0.01 -0.01,-0.01 -0.01,-0.02 -0.24,-0.33 -0.41,-0.87 -0.41,-1.32zm-1.16 -0.15c0,0.67 0.09,1.22 0.39,1.77l0.04 0.06c0.21,0.38 0.3,0.49 0.59,0.8l0.45 0.4c1.26,0.89 2.71,0.86 3.99,0.02 0.18,-0.12 0.31,-0.24 0.46,-0.39 0.18,-0.19 0.42,-0.46 0.55,-0.7 0.44,-0.76 0.5,-1.19 0.5,-2.09 0,-0.49 -0.18,-0.9 -0.32,-1.27 -0.12,-0.29 -0.52,-0.83 -0.78,-1.04 -0.33,-0.26 -0.34,-0.38 -0.96,-0.65 -0.07,-0.03 -0.11,-0.04 -0.16,-0.06 -1.5,-0.61 -3.19,-0.01 -4.1,1.26 -0.35,0.48 -0.65,1.22 -0.65,1.89z"/>
   <path class="fil0" d="M9.72 3.06c0,0.35 0.02,0.54 0.34,0.79 0.01,0 0.01,0.01 0.02,0.01 0.04,0.03 0.08,0.06 0.14,0.08 0.32,0.12 0.67,0.05 0.91,-0.19 0.36,-0.37 0.27,-1 -0.03,-1.26 -0.02,-0.02 -0.11,-0.07 -0.13,-0.08l-0.13 -0.06c-0.46,-0.18 -1.12,0.19 -1.12,0.71z"/>
  </g>
 </g>
</svg>
