<?xml version="1.0" encoding="UTF-8"?>
<!DOCTYPE svg PUBLIC "-//W3C//DTD SVG 1.1//EN" "http://www.w3.org/Graphics/SVG/1.1/DTD/svg11.dtd">
<!-- Creator: CorelDRAW -->
<svg xmlns="http://www.w3.org/2000/svg" xml:space="preserve" width="589px" height="408px" version="1.1" style="shape-rendering:geometricPrecision; text-rendering:geometricPrecision; image-rendering:optimizeQuality; fill-rule:evenodd; clip-rule:evenodd"
viewBox="0 0 22.23 15.39"
 xmlns:xlink="http://www.w3.org/1999/xlink"
 xmlns:xodm="http://www.corel.com/coreldraw/odm/2003">
 <defs>
  <style type="text/css">
   <![CDATA[
    .fil0 {fill:#F58634}
    .fil2 {fill:#B5B4B0}
    .fil1 {fill:#E7E4D7}
    .fil3 {fill:#F96A00}
   ]]>
  </style>
 </defs>
 <g id="Capa_x0020_1">
  <metadata id="CorelCorpID_0Corel-Layer"/>
  <path class="fil0" d="M2.76 15.38l0.02 -0.26 -0.01 -10.83c0.24,0.09 5.63,4.43 6.08,4.79l2.05 1.62c0.09,0.07 0.1,0.09 0.2,0.15 0.22,-0.09 3.77,-2.88 4.03,-3.08l3.02 -2.34c0.22,-0.17 0.83,-0.69 1.03,-0.77l0 10.69 0 0.03 0.06 0 -0.02 -10.66c0.05,-0.18 0.17,-0.23 0.32,-0.34 0.48,-0.35 2.46,-1.96 2.66,-2.01 0,-0.95 -0.11,-1.32 -0.61,-1.81 -0.21,-0.21 -0.43,-0.34 -0.73,-0.46 -0.37,-0.13 -0.61,-0.1 -1.11,-0.1l-3.13 2.7c-0.62,0.51 -5.06,4.37 -5.25,4.45l-4.38 -3.57c-0.74,-0.63 -1.46,-1.18 -2.17,-1.79 -0.36,-0.3 -0.74,-0.59 -1.1,-0.9 -0.23,-0.19 -0.92,-0.7 -1.05,-0.89 -0.8,0 -1.42,-0.08 -2.06,0.56 -0.56,0.55 -0.61,0.93 -0.61,1.99l0 10.4c0,0.82 0.01,1.32 0.66,1.93 0.57,0.53 1.06,0.5 2.1,0.5z"/>
  <path class="fil1" d="M19.75 0l-17.08 0c0.13,0.19 0.82,0.7 1.05,0.89 0.36,0.31 0.74,0.6 1.1,0.9 0.71,0.61 1.43,1.16 2.17,1.79l4.38 3.57c0.19,-0.08 4.63,-3.94 5.25,-4.45l3.13 -2.7z"/>
  <path class="fil2" d="M10.9 10.7l-2.02 1.16c-1.16,0.59 -5.82,3.26 -6.1,3.26l-0.02 0.26 0.05 0c0.11,-0.13 6.3,-3.44 7.12,-3.87 1.39,-0.73 0.95,-0.75 2.09,-0.13 0.79,0.44 6.86,3.87 7.16,3.97l0 -10.69c-0.2,0.08 -0.81,0.6 -1.03,0.77l-3.02 2.34c-0.26,0.2 -3.81,2.99 -4.03,3.08 -0.1,-0.06 -0.11,-0.08 -0.2,-0.15z"/>
  <path class="fil1" d="M2.78 15.12c0.28,0 4.94,-2.67 6.1,-3.26l2.02 -1.16 -2.05 -1.62c-0.45,-0.36 -5.84,-4.7 -6.08,-4.79l0.01 10.83z"/>
  <path class="fil1" d="M2.81 15.38l16.37 0 0 -0.03c-0.3,-0.1 -6.37,-3.53 -7.16,-3.97 -1.14,-0.62 -0.7,-0.6 -2.09,0.13 -0.82,0.43 -7.01,3.74 -7.12,3.87z"/>
  <path class="fil3" d="M19.24 15.38c1.08,0 2.21,0.13 2.8,-1.19 0.27,-0.61 0.16,-3 0.16,-3.84 0,-2.66 0,-5.32 0,-7.98 -0.2,0.05 -2.18,1.66 -2.66,2.01 -0.15,0.11 -0.27,0.16 -0.32,0.34l0.02 10.66z"/>
 </g>
</svg>
