<?xml version="1.0" encoding="UTF-8"?>
<!DOCTYPE svg PUBLIC "-//W3C//DTD SVG 1.1//EN" "http://www.w3.org/Graphics/SVG/1.1/DTD/svg11.dtd">
<!-- Creator: CorelDRAW -->
<svg xmlns="http://www.w3.org/2000/svg" xml:space="preserve" width="279px" height="416px" version="1.1" style="shape-rendering:geometricPrecision; text-rendering:geometricPrecision; image-rendering:optimizeQuality; fill-rule:evenodd; clip-rule:evenodd"
viewBox="0 0 4.58 6.84"
 xmlns:xlink="http://www.w3.org/1999/xlink"
 xmlns:xodm="http://www.corel.com/coreldraw/odm/2003">
 <defs>
  <style type="text/css">
   <![CDATA[
    .fil0 {fill:#F96A00}
   ]]>
  </style>
 </defs>
 <g id="Capa_x0020_1">
  <metadata id="CorelCorpID_0Corel-Layer"/>
  <path class="fil0" d="M4.06 6.83c0.18,-0.09 0.16,-0.17 0.22,-0.34l0.23 -0.67c0.09,-0.28 0.13,-0.37 -0.13,-0.51 -0.07,-0.04 -0.13,-0.07 -0.2,-0.11l-1.17 -0.61c-0.12,-0.05 -0.3,0.02 -0.48,0.07 -0.54,0.13 -0.53,0.18 -0.84,-0.24 -0.27,-0.38 -0.47,-0.81 -0.57,-1.27 -0.01,-0.05 -0.02,-0.07 -0.02,-0.11 0,-0.03 0,-0.04 0.01,-0.06 0.02,-0.11 0.08,-0.15 0.17,-0.23l0.41 -0.32c0.16,-0.13 0.16,-0.15 0.19,-0.39l0.11 -0.66c0.02,-0.07 0.03,-0.14 0.04,-0.22l0.08 -0.43c0.04,-0.31 -0.04,-0.33 -0.33,-0.43l-0.68 -0.23c-0.16,-0.05 -0.22,-0.11 -0.39,-0.03 -0.09,0.05 -0.25,0.35 -0.3,0.43 -0.42,0.75 -0.49,1.74 -0.34,2.56 0.15,0.88 0.61,1.83 1.22,2.48 0.45,0.48 0.81,0.75 1.39,1.03 0.23,0.11 0.61,0.22 0.85,0.26 0.09,0.01 0.45,0.07 0.53,0.03z"/>
 </g>
</svg>
