<?xml version="1.0" encoding="UTF-8"?>
<!DOCTYPE svg PUBLIC "-//W3C//DTD SVG 1.1//EN" "http://www.w3.org/Graphics/SVG/1.1/DTD/svg11.dtd">
<!-- Creator: CorelDRAW -->
<svg xmlns="http://www.w3.org/2000/svg" xml:space="preserve" width="364px" height="415px" version="1.1" style="shape-rendering:geometricPrecision; text-rendering:geometricPrecision; image-rendering:optimizeQuality; fill-rule:evenodd; clip-rule:evenodd"
viewBox="0 0 10.14 11.54"
 xmlns:xlink="http://www.w3.org/1999/xlink"
 xmlns:xodm="http://www.corel.com/coreldraw/odm/2003">
 <defs>
  <style type="text/css">
   <![CDATA[
    .fil0 {fill:#F96A00}
   ]]>
  </style>
 </defs>
 <g id="Capa_x0020_1">
  <metadata id="CorelCorpID_0Corel-Layer"/>
  <path class="fil0" d="M5.32 8.02c0,1.29 -1.58,2.17 -2.73,1.29 -0.04,-0.03 -0.15,-0.12 -0.18,-0.16 -0.5,-0.54 -0.62,-1.17 -0.34,-1.87 0.23,-0.57 0.88,-1.01 1.54,-1.01 0.22,0 0.38,0.05 0.56,0.09l0 -1.92c-0.2,-0.05 -0.41,-0.04 -0.63,-0.04 -1.06,0 -1.96,0.52 -2.49,1.05 -2.26,2.27 -0.62,6.09 2.58,6.09 1.98,0 3.61,-1.6 3.61,-3.58l0 -3.07c0,-0.39 -0.03,-0.71 -0.03,-1.1 0.54,0.36 0.59,0.42 1.27,0.69 0.44,0.17 1.07,0.3 1.66,0.3l0 -1.89c-0.7,0 -1.4,-0.26 -1.9,-0.7l-0.35 -0.35c-0.27,-0.3 -0.5,-0.79 -0.6,-1.2l-0.08 -0.64 -1.89 0 0 8.02z"/>
 </g>
</svg>
