<?xml version="1.0" encoding="UTF-8"?>
<!DOCTYPE svg PUBLIC "-//W3C//DTD SVG 1.1//EN" "http://www.w3.org/Graphics/SVG/1.1/DTD/svg11.dtd">
<!-- Creator: CorelDRAW -->
<svg xmlns="http://www.w3.org/2000/svg" xml:space="preserve" width="293px" height="417px" version="1.1" style="shape-rendering:geometricPrecision; text-rendering:geometricPrecision; image-rendering:optimizeQuality; fill-rule:evenodd; clip-rule:evenodd"
viewBox="0 0 5.5 7.82"
 xmlns:xlink="http://www.w3.org/1999/xlink"
 xmlns:xodm="http://www.corel.com/coreldraw/odm/2003">
 <defs>
  <style type="text/css">
   <![CDATA[
    .fil0 {fill:#F96A00}
   ]]>
  </style>
 </defs>
 <g id="Capa_x0020_1">
  <metadata id="CorelCorpID_0Corel-Layer"/>
  <g id="_3081061521088">
   <path class="fil0" d="M2.75 1.37c0.18,0.05 0.29,0.01 0.56,0.13 0.69,0.32 1.01,1.12 0.69,1.81 -0.08,0.18 -0.15,0.28 -0.28,0.41 -0.07,0.06 -0.1,0.1 -0.18,0.15 -0.14,0.1 -0.09,0.06 -0.23,0.13 -0.09,0.04 -0.14,0.06 -0.25,0.08 -0.17,0.04 -0.21,0.02 -0.31,0.04l0 3.7c0.2,0 0.27,-0.2 0.4,-0.43l1.26 -2.07c0.25,-0.41 0.75,-1.17 0.92,-1.59 0.14,-0.35 0.17,-0.66 0.17,-1.06 0,-0.73 -0.32,-1.34 -0.76,-1.83l-0.03 -0.03c-0.01,0 -0.01,0 -0.01,-0.01l-0.13 -0.12c-0.45,-0.43 -1.18,-0.68 -1.82,-0.68l0 1.37z"/>
   <path class="fil0" d="M2.75 7.82l0 -3.7c-0.44,-0.01 -0.87,-0.22 -1.12,-0.59l-0.12 -0.22c-0.05,-0.09 -0.06,-0.15 -0.09,-0.25 -0.05,-0.24 -0.04,-0.27 -0.03,-0.46 0.04,-0.64 0.65,-1.21 1.36,-1.23l0 -1.37c-0.37,0 -0.72,0.07 -1.03,0.2 -0.25,0.1 -0.22,0.1 -0.42,0.21 -0.16,0.1 -0.22,0.16 -0.36,0.27 -0.26,0.2 -0.4,0.44 -0.56,0.69 -0.15,0.21 -0.3,0.64 -0.34,0.91 -0.13,0.85 0.05,1.37 0.42,2l1.27 2.06c0.05,0.09 0.1,0.17 0.15,0.26 0.06,0.09 0.11,0.17 0.16,0.26 0.11,0.18 0.21,0.34 0.32,0.52 0.05,0.08 0.1,0.16 0.15,0.25 0.06,0.1 0.1,0.19 0.24,0.19z"/>
  </g>
 </g>
</svg>
