<?xml version="1.0" encoding="UTF-8"?>
<!DOCTYPE svg PUBLIC "-//W3C//DTD SVG 1.1//EN" "http://www.w3.org/Graphics/SVG/1.1/DTD/svg11.dtd">
<!-- Creator: CorelDRAW -->
<svg xmlns="http://www.w3.org/2000/svg" xml:space="preserve" width="498px" height="498px" version="1.1" style="shape-rendering:geometricPrecision; text-rendering:geometricPrecision; image-rendering:optimizeQuality; fill-rule:evenodd; clip-rule:evenodd"
viewBox="0 0 20.54 20.54"
 xmlns:xlink="http://www.w3.org/1999/xlink"
 xmlns:xodm="http://www.corel.com/coreldraw/odm/2003">
 <defs>
  <style type="text/css">
   <![CDATA[
    .fil0 {fill:#29A71A}
    .fil1 {fill:#FEFFFE}
   ]]>
  </style>
 </defs>
 <g id="Capa_x0020_1">
  <metadata id="CorelCorpID_0Corel-Layer"/>
  <g id="_3081114038736">
   <path class="fil0" d="M0 9.95c0,1.52 0.09,2.37 0.59,3.78 0.24,0.69 0.45,1.08 0.79,1.7 0.07,0.14 0.15,0.24 0.23,0.37 0.33,0.55 0.95,1.3 1.39,1.74 0.41,0.41 0.85,0.77 1.33,1.11 0.6,0.43 0.89,0.59 1.57,0.92 0.95,0.47 2.59,0.97 4.01,0.97l0.05 0c1.13,0 1.68,-0.01 2.82,-0.3 0.35,-0.09 0.63,-0.18 0.95,-0.29 1.32,-0.46 2.13,-1.03 3.16,-1.82 2.05,-1.59 3.65,-4.8 3.65,-7.5 0,-1.85 -0.22,-3.19 -0.95,-4.71 -1.11,-2.31 -2.68,-3.81 -4.95,-4.96 -1.08,-0.55 -2.78,-0.96 -4.01,-0.96 -1.55,0 -2.39,0.09 -3.83,0.59 -0.28,0.1 -0.62,0.23 -0.88,0.36l-1.18 0.66c-1.69,1 -2.92,2.58 -3.79,4.31 -0.55,1.09 -0.95,2.79 -0.95,4.03z"/>
   <path class="fil1" d="M9.89 3.87c-3.54,0.23 -6.52,3.38 -5.91,7.35 0.07,0.47 0.2,0.89 0.35,1.3 0.29,0.73 0.3,0.44 0.12,1.31 -0.1,0.47 -0.19,0.93 -0.29,1.4 -0.4,1.88 -0.65,1.61 2.55,0.86 0.84,-0.19 0.53,-0.22 1.28,0.07 0.42,0.16 0.86,0.28 1.33,0.35 3.94,0.6 7.14,-2.44 7.31,-6 0.17,-3.75 -2.96,-6.89 -6.74,-6.64z"/>
   <path class="fil0" d="M5.64 14.91c0.41,-0.07 1.81,-0.52 2.07,-0.41 0.68,0.31 1.09,0.56 1.96,0.66 1.36,0.16 2.99,-0.31 3.89,-1.2 0.97,-0.96 1.61,-1.96 1.69,-3.49 0.1,-2.16 -1.23,-4.09 -2.94,-4.81 -0.68,-0.28 -1.37,-0.45 -2.2,-0.42 -0.73,0.02 -1.52,0.23 -2.07,0.51 -0.46,0.24 -1.15,0.72 -1.48,1.13 -0.77,0.93 -1.44,2.18 -1.24,3.9 0.2,1.72 0.83,1.67 0.66,2.46l-0.34 1.67z"/>
   <path class="fil1" d="M8.07 7.17c-0.29,0.07 -0.72,0.61 -0.86,0.88 -0.6,1.18 0.62,2.81 1.37,3.51 0.57,0.54 1.12,1.03 2,1.44 2.26,1.04 3.5,-0.83 2.96,-1.31 -0.16,-0.13 -1.03,-0.34 -1.31,-0.41 -1.12,-0.32 -0.46,1.85 -3.12,-0.93 -0.35,-0.36 -0.6,-0.62 -0.19,-1.11 0.4,-0.51 0.19,-0.65 -0.06,-1.21 -0.16,-0.35 -0.3,-0.98 -0.79,-0.86z"/>
  </g>
 </g>
</svg>
